<svg width="22" height="22" viewBox="0 0 22 22" fill="none" xmlns="http://www.w3.org/2000/svg">
<path d="M7.75421 22C8.7456 22 9.54928 21.162 9.54928 20.1282C9.54928 19.0945 8.7456 18.2565 7.75421 18.2565C6.76282 18.2565 5.95914 19.0945 5.95914 20.1282C5.95914 21.162 6.76282 22 7.75421 22Z" fill="white"/>
<path d="M17.0886 22C18.08 22 18.8837 21.162 18.8837 20.1282C18.8837 19.0945 18.08 18.2565 17.0886 18.2565C16.0972 18.2565 15.2935 19.0945 15.2935 20.1282C15.2935 21.162 16.0972 22 17.0886 22Z" fill="white"/>
<path d="M21.8275 2.82582C21.7607 2.73522 21.6748 2.66179 21.5764 2.61118C21.4781 2.56056 21.37 2.5341 21.2603 2.53383H4.67386L4.35075 1.46319C4.31526 1.34823 4.25362 1.24393 4.1711 1.15919C4.08858 1.07445 3.98763 1.01178 3.87685 0.976532L0.932937 0.03317C0.842416 0.00416539 0.747302 -0.00596426 0.653027 0.00335965C0.558752 0.0126836 0.467161 0.0412783 0.383483 0.0875112C0.21449 0.180883 0.0879897 0.34043 0.031812 0.531055C-0.0243657 0.72168 -0.00561923 0.927767 0.0839272 1.10398C0.173474 1.28019 0.326485 1.4121 0.509301 1.47067L3.08702 2.29424L6.37559 13.1279L5.2052 14.1312L5.11186 14.2285C4.82242 14.578 4.65844 15.0215 4.64796 15.4831C4.63748 15.9447 4.78116 16.3958 5.05442 16.7591C5.25012 17.0073 5.49881 17.2042 5.78059 17.3343C6.06236 17.4643 6.36941 17.5237 6.67716 17.5078H18.661C18.8515 17.5078 19.0341 17.4289 19.1688 17.2885C19.3034 17.1481 19.3791 16.9577 19.3791 16.7591C19.3791 16.5606 19.3034 16.3701 19.1688 16.2297C19.0341 16.0893 18.8515 16.0104 18.661 16.0104H6.56227C6.47959 16.0075 6.39903 15.9823 6.32838 15.9375C6.25773 15.8926 6.19938 15.8295 6.15895 15.7542C6.11853 15.6789 6.09741 15.5941 6.09762 15.5078C6.09784 15.4215 6.11938 15.3368 6.16018 15.2617L7.89063 13.7643H18.9698C19.1338 13.7693 19.2945 13.7156 19.4252 13.612C19.5558 13.5085 19.6485 13.3614 19.6878 13.1953L21.9855 3.46221C22.0073 3.3506 22.0045 3.23526 21.9771 3.12497C21.9497 3.01469 21.8986 2.91238 21.8275 2.82582V2.82582Z" fill="white"/>
</svg>
